<?xml version="1.0" standalone="no"?>
<!DOCTYPE svg PUBLIC "-//W3C//DTD SVG 20010904//EN"
 "http://www.w3.org/TR/2001/REC-SVG-20010904/DTD/svg10.dtd">
<svg version="1.0" xmlns="http://www.w3.org/2000/svg"
 width="1167.000000pt" height="1167.000000pt" viewBox="0 0 1167.000000 1167.000000"
 preserveAspectRatio="xMidYMid meet">
<metadata>
Created by potrace 1.14, written by Peter Selinger 2001-2017
</metadata>
<g transform="translate(0.000000,1167.000000) scale(0.100000,-0.100000)"
fill="#000000" stroke="none">
<path d="M5679 11666 c-2 -2 -30 -6 -61 -10 -145 -15 -327 -65 -473 -129 -109
-48 -167 -80 -730 -407 -88 -51 -176 -101 -195 -112 -35 -20 -466 -269 -527
-304 -17 -11 -76 -44 -130 -75 -54 -31 -357 -206 -673 -389 -316 -183 -591
-341 -610 -352 -19 -11 -48 -27 -65 -37 -16 -10 -122 -71 -235 -136 -537 -309
-729 -424 -760 -455 -3 -3 -34 -30 -70 -60 -123 -104 -273 -277 -338 -389 -14
-25 -29 -48 -33 -51 -4 -3 -29 -52 -57 -110 -98 -204 -153 -402 -170 -615 -9
-101 -7 -4359 2 -4440 3 -33 8 -71 11 -85 3 -14 7 -41 10 -61 15 -111 87 -314
167 -469 81 -158 173 -284 303 -415 163 -165 254 -228 645 -447 19 -11 40 -24
45 -28 6 -4 33 -20 60 -35 55 -30 626 -359 850 -490 77 -44 147 -84 155 -88 8
-4 31 -17 50 -28 87 -52 1043 -605 1115 -644 28 -15 61 -36 75 -45 14 -9 39
-24 55 -32 17 -8 111 -62 210 -120 520 -303 719 -415 800 -454 95 -44 284
-108 349 -118 21 -4 41 -8 45 -10 3 -2 33 -7 66 -11 32 -3 62 -8 66 -11 4 -2
9 2 11 9 2 6 4 1193 3 2637 -1 2442 -2 2629 -18 2689 -28 105 -99 209 -187
273 -19 14 -105 66 -190 115 -85 49 -274 158 -420 243 -146 84 -278 161 -295
170 -16 9 -56 32 -88 51 -33 19 -75 43 -95 55 -21 11 -111 64 -202 116 -220
128 -736 426 -780 451 -298 169 -350 211 -397 315 -35 78 -40 193 -12 275 37
110 130 203 241 243 62 22 181 20 243 -3 28 -11 154 -80 280 -153 127 -73 244
-141 260 -150 160 -90 446 -256 467 -271 15 -11 29 -19 32 -19 2 0 71 -39 153
-86 171 -100 720 -417 772 -447 20 -11 50 -28 66 -38 54 -33 170 -88 200 -94
71 -15 185 -13 252 5 78 20 79 21 401 208 134 78 245 142 247 142 2 0 40 23
85 50 45 28 83 50 84 50 5 0 253 144 278 161 14 11 29 19 32 19 3 0 252 142
554 316 301 174 651 376 777 449 127 73 374 216 550 318 176 101 336 193 355
204 19 11 74 43 122 72 48 28 91 51 97 51 6 0 11 5 11 10 0 6 4 10 9 10 5 0
71 36 147 81 236 137 265 150 373 154 115 5 250 -56 324 -147 49 -60 73 -111
94 -198 10 -44 2 -145 -17 -202 -24 -69 -81 -153 -132 -191 -31 -23 -164 -104
-198 -120 -8 -4 -31 -17 -50 -28 -41 -25 -281 -164 -325 -189 -16 -9 -56 -32
-89 -51 -32 -19 -81 -47 -110 -62 -28 -16 -62 -36 -76 -45 -14 -9 -38 -24 -55
-33 -28 -15 -436 -251 -1515 -874 -250 -145 -471 -272 -490 -283 -19 -12 -46
-27 -60 -35 -14 -8 -68 -39 -120 -69 -52 -30 -156 -90 -230 -133 -74 -42 -172
-99 -218 -126 -45 -27 -85 -49 -88 -49 -2 0 -23 -12 -47 -27 -23 -15 -63 -39
-88 -53 -380 -210 -455 -275 -514 -447 l-24 -68 0 -2626 -1 -2626 87 14 c228
36 402 101 646 240 290 166 1154 665 1200 693 18 11 39 23 47 27 8 4 47 26 85
48 39 23 90 53 115 67 25 14 158 91 295 170 138 80 342 198 455 263 113 65
328 190 479 277 150 87 292 169 314 181 22 12 47 27 56 32 9 6 120 70 246 143
292 169 351 205 365 221 3 4 23 19 45 36 150 111 327 312 429 489 82 141 154
320 190 471 46 196 45 124 45 2470 -1 2099 -2 2215 -19 2310 -51 278 -127 473
-266 687 -94 143 -257 317 -395 421 -79 59 -362 230 -624 377 -35 19 -191 109
-346 199 -156 90 -300 173 -319 184 -19 10 -75 43 -125 72 -49 29 -146 85
-215 124 -157 91 -123 71 -350 203 -107 62 -211 121 -230 132 -19 10 -47 27
-62 37 -14 11 -29 19 -32 19 -3 0 -29 14 -58 31 -95 57 -811 471 -868 502 -30
16 -59 33 -65 37 -5 4 -26 17 -45 27 -19 11 -116 67 -215 125 -99 57 -225 127
-280 155 -113 58 -300 123 -420 147 -44 8 -93 18 -110 21 -33 7 -390 16 -396
11z"/>
</g>
</svg>
