<svg xmlns="http://www.w3.org/2000/svg" id="_22_Icon" width="24" height="24" viewBox="0 0 24 24">
    <defs>
        <clipPath id="clip-path">
            <path id="_Icon_Сolor" d="M15 6H3.135l3.633-4.36A1 1 0 0 0 5.232.36l-5 6a.942.942 0 0 0-.088.154.947.947 0 0 0-.071.124A.985.985 0 0 0 0 7a.985.985 0 0 0 .072.358.947.947 0 0 0 .071.124.942.942 0 0 0 .088.154l5 6a1 1 0 0 0 1.536-1.28L3.135 8H15a1 1 0 0 0 0-2" class="cls-1" transform="translate(4 5)"/>
        </clipPath>
        <style>
            .cls-1{fill:#666666}
        </style>
    </defs>
    <g id="그룹_7">
        <path id="_Icon_Сolor-2" d="M15 6H3.135l3.633-4.36A1 1 0 0 0 5.232.36l-5 6a.942.942 0 0 0-.088.154.947.947 0 0 0-.071.124A.985.985 0 0 0 0 7a.985.985 0 0 0 .072.358.947.947 0 0 0 .071.124.942.942 0 0 0 .088.154l5 6a1 1 0 0 0 1.536-1.28L3.135 8H15a1 1 0 0 0 0-2" class="cls-1" transform="translate(4 5)"/>
    </g>
</svg>
